<?xml version="1.0" encoding="utf-8"?>
<!-- Generator: Adobe Illustrator 23.0.1, SVG Export Plug-In . SVG Version: 6.00 Build 0)  -->
<svg version="1.1" id="Layer_4" xmlns="http://www.w3.org/2000/svg" xmlns:xlink="http://www.w3.org/1999/xlink" x="0px" y="0px"
	 viewBox="0 0 100 76.4" style="enable-background:new 0 0 100 76.4;" xml:space="preserve">
<g>
	<g>
		<g>
			<path d="M15.3,0C15.3,0,15.3,0,15.3,0c-0.9,0-1.8,0.4-2.5,1c-0.7,0.7-1.1,1.6-1.1,2.5v53.7c0,2,1.6,3.6,3.6,3.6
				c8.3,0,22.3,1.8,31.9,11.8V16.5c0-0.7-0.2-1.3-0.5-1.8C38.8,2,23.6,0,15.3,0z"/>
			<path d="M88.3,57.2V3.6c0-1-0.4-1.9-1.1-2.5c-0.7-0.7-1.6-1-2.5-1h0c-8.3,0-23.5,2-31.4,14.7c-0.3,0.5-0.5,1.1-0.5,1.8v56.2
				c9.6-10.1,23.6-11.8,31.9-11.8C86.7,60.8,88.3,59.2,88.3,57.2z"/>
			<path d="M96.4,12.4h-2.6v44.9c0,5-4.1,9.1-9.1,9.1c-7.1,0-18.7,1.4-27,9.2c14.3-3.5,29.3-1.2,37.9,0.7c1.1,0.2,2.2,0,3-0.7
				s1.3-1.7,1.3-2.8V15.9C100,14,98.4,12.4,96.4,12.4z"/>
			<path d="M6.2,57.2V12.4H3.6c-2,0-3.6,1.6-3.6,3.6v56.9c0,1.1,0.5,2.1,1.3,2.8c0.9,0.7,2,0.9,3,0.7c8.6-1.9,23.6-4.2,37.9-0.7
				c-8.2-7.8-19.9-9.2-27-9.2C10.3,66.4,6.2,62.3,6.2,57.2z"/>
		</g>
	</g>
</g>
</svg>
