<?xml version="1.0" encoding="utf-8"?>
<!-- Generator: Adobe Illustrator 23.0.1, SVG Export Plug-In . SVG Version: 6.00 Build 0)  -->
<svg version="1.1" id="Layer_4" xmlns="http://www.w3.org/2000/svg" xmlns:xlink="http://www.w3.org/1999/xlink" x="0px" y="0px"
	 viewBox="0 0 83.8 100" style="enable-background:new 0 0 83.8 100;" xml:space="preserve">
<g>
	<path d="M41.9,55.8c-5.7,0-18,2.6-18,10.3c0,9.1,3.1,25.8,8.7,31.3c1.9,1.9,5.2,2.6,9.3,2.6s7.4-0.7,9.3-2.6
		c5.6-5.6,8.7-22.2,8.7-31.3C59.9,58.4,47.6,55.8,41.9,55.8z"/>
	<g>
		<circle cx="41.9" cy="41.8" r="10"/>
	</g>
	<g>
		<path d="M60.8,58.5c-0.4,0-0.9-0.1-1.2-0.4c-0.9-0.7-1-2-0.3-2.8c3-3.9,4.6-8.5,4.6-13.4c0-12-9.8-21.8-21.9-21.8S20,29.8,20,41.8
			c0,4.9,1.6,9.6,4.6,13.4c0.7,0.9,0.5,2.2-0.3,2.8c-0.9,0.7-2.1,0.5-2.8-0.3C17.9,53.2,16,47.7,16,41.8C16,27.6,27.6,16,41.9,16
			s26,11.6,26,25.9c0,5.8-1.9,11.3-5.5,15.9C62,58.2,61.4,58.5,60.8,58.5z"/>
	</g>
	<g>
		<path d="M65.1,76.2c-0.6,0-1.2-0.3-1.7-0.8c-0.7-0.9-0.4-2.2,0.5-2.8c4.8-3.4,8.8-8,11.5-13.2c2.8-5.4,4.3-11.4,4.3-17.5
			C79.8,21,62.8,4,41.9,4S4,21,4,41.8C4,47.9,5.5,54,8.4,59.4c2.7,5.2,6.7,9.8,11.5,13.2c0.9,0.7,1.1,1.9,0.5,2.8
			c-0.6,0.9-1.9,1.1-2.8,0.5C12.2,72.1,7.8,67,4.8,61.3C1.7,55.3,0,48.6,0,41.8C0,18.8,18.8,0,41.9,0s41.9,18.8,41.9,41.8
			c0,6.8-1.7,13.5-4.8,19.4C76,67,71.6,72,66.3,75.8C66,76.1,65.5,76.2,65.1,76.2z"/>
	</g>
</g>
</svg>
