<?xml version="1.0" encoding="utf-8"?>
<!-- Generator: Adobe Illustrator 23.0.1, SVG Export Plug-In . SVG Version: 6.00 Build 0)  -->
<svg version="1.1" id="Layer_4" xmlns="http://www.w3.org/2000/svg" xmlns:xlink="http://www.w3.org/1999/xlink" x="0px" y="0px"
	 viewBox="0 0 100 100" style="enable-background:new 0 0 100 100;" xml:space="preserve">
<path d="M50,0C22.4,0,0,22.4,0,50s22.4,50,50,50s50-22.4,50-50S77.6,0,50,0z M75.9,51.4l-36.7,25c-0.3,0.2-0.6,0.3-0.9,0.3
	c-0.3,0-0.5-0.1-0.8-0.2c-0.5-0.3-0.9-0.8-0.9-1.5V25c0-0.6,0.3-1.2,0.9-1.5c0.5-0.3,1.2-0.2,1.7,0.1l36.7,25
	c0.4,0.3,0.7,0.8,0.7,1.4S76.4,51.1,75.9,51.4z"/>
</svg>
