<?xml version="1.0" encoding="utf-8"?>
<!-- Generator: Adobe Illustrator 23.0.1, SVG Export Plug-In . SVG Version: 6.00 Build 0)  -->
<svg version="1.1" id="Layer_4" xmlns="http://www.w3.org/2000/svg" xmlns:xlink="http://www.w3.org/1999/xlink" x="0px" y="0px"
	 viewBox="0 0 100 99.8" style="enable-background:new 0 0 100 99.8;" xml:space="preserve">
<g>
	<path d="M51.8,99.8c7.7-1.1,14.3-9.1,18.6-20.8c-6.1-1.4-12.3-2.1-18.6-2.2V99.8z"/>
	<path d="M64,97.9c0.4-0.1,0.9-0.3,1.3-0.4c0.4-0.1,0.8-0.2,1.1-0.4c0.4-0.2,0.9-0.3,1.3-0.5c0.4-0.1,0.7-0.3,1.1-0.4
		c0.4-0.2,0.8-0.4,1.3-0.5c0.4-0.2,0.7-0.3,1.1-0.5c0.4-0.2,0.8-0.4,1.2-0.6c0.4-0.2,0.7-0.4,1.1-0.6c0.4-0.2,0.8-0.4,1.2-0.7
		c0.4-0.2,0.7-0.4,1.1-0.6c0.4-0.2,0.8-0.5,1.2-0.7c0.3-0.2,0.7-0.4,1-0.7c0.4-0.2,0.8-0.5,1.1-0.8c0.3-0.2,0.7-0.5,1-0.7
		c0.4-0.3,0.7-0.6,1.1-0.8c0.3-0.2,0.6-0.5,0.9-0.8c0.4-0.3,0.7-0.6,1.1-0.9c0.3-0.3,0.6-0.5,0.9-0.8c0.3-0.3,0.7-0.7,1-1
		c0.3-0.3,0.6-0.6,0.9-0.9c0.1-0.1,0.1-0.1,0.2-0.2c-3.9-2-8-3.6-12.2-4.7c-2.2,7-6.1,13.4-11.4,18.6c0.1,0,0.3-0.1,0.4-0.1
		C63.3,98.2,63.6,98,64,97.9z"/>
	<path d="M100,51.7H78.6c-0.1,8.4-1.3,16.7-3.6,24.7c4.7,1.3,9.3,3.1,13.6,5.4C95.6,73.3,99.6,62.7,100,51.7z"/>
	<path d="M51.8,48.1H75C74.9,40,73.7,32,71.5,24.3c-6.5,1.5-13.1,2.3-19.7,2.4V48.1z"/>
	<path d="M51.8,0v23c6.2-0.1,12.5-0.8,18.6-2.2C66.1,9.1,59.4,1.1,51.8,0z"/>
	<path d="M51.8,73.2c6.6,0.1,13.2,0.9,19.7,2.3c2.2-7.8,3.4-15.8,3.5-23.8H51.8V73.2z"/>
	<path d="M88.5,18c-4.3,2.3-8.8,4.1-13.6,5.4c2.3,8,3.5,16.4,3.6,24.7H100C99.6,37.1,95.6,26.5,88.5,18z"/>
	<path d="M86.1,15.3c-0.1-0.1-0.1-0.1-0.2-0.2c-0.3-0.3-0.6-0.6-0.9-0.9c-0.3-0.3-0.7-0.7-1-1c-0.3-0.3-0.6-0.5-0.9-0.8
		c-0.3-0.3-0.7-0.6-1.1-0.9c-0.3-0.3-0.6-0.5-0.9-0.8c-0.4-0.3-0.7-0.6-1.1-0.9c-0.3-0.2-0.7-0.5-1-0.7C78.8,9,78.4,8.7,78,8.4
		c-0.3-0.2-0.7-0.4-1-0.7c-0.4-0.2-0.8-0.5-1.2-0.7c-0.3-0.2-0.7-0.4-1-0.6C74.4,6.2,74,6,73.6,5.8c-0.4-0.2-0.7-0.4-1.1-0.6
		c-0.4-0.2-0.8-0.4-1.2-0.6c-0.4-0.2-0.7-0.3-1.1-0.5c-0.4-0.2-0.8-0.4-1.3-0.5c-0.4-0.2-0.7-0.3-1.1-0.4c-0.4-0.2-0.9-0.3-1.3-0.5
		c-0.4-0.1-0.7-0.3-1.1-0.4C64.9,2.1,64.5,2,64,1.9c-0.4-0.1-0.8-0.2-1.1-0.3c-0.1,0-0.3-0.1-0.4-0.1C67.7,6.6,71.7,13,73.9,20
		C78.1,18.9,82.2,17.3,86.1,15.3z"/>
	<path d="M0,48.1h21.4c0.1-8.4,1.3-16.7,3.6-24.7c-4.7-1.3-9.3-3.1-13.6-5.4C4.4,26.5,0.4,37.1,0,48.1z"/>
	<path d="M48.2,99.8v-23C42,76.8,35.7,77.6,29.6,79C33.9,90.7,40.6,98.7,48.2,99.8z"/>
	<path d="M48.2,51.7H25c0.1,8.1,1.3,16.1,3.5,23.9c6.5-1.5,13.1-2.3,19.7-2.3V51.7z"/>
	<path d="M48.2,0c-7.7,1.1-14.3,9.1-18.6,20.9C35.7,22.2,42,23,48.2,23V0z"/>
	<path d="M48.2,26.6c-6.6-0.1-13.2-0.9-19.7-2.4C26.3,32,25.1,40,25,48.1h23.2V26.6z"/>
	<path d="M37.6,1.5c-0.1,0-0.3,0.1-0.4,0.1c-0.4,0.1-0.8,0.2-1.1,0.3c-0.5,0.1-0.9,0.3-1.3,0.4c-0.4,0.1-0.8,0.2-1.1,0.4
		c-0.4,0.2-0.9,0.3-1.3,0.5c-0.4,0.1-0.7,0.3-1.1,0.4c-0.4,0.2-0.9,0.4-1.3,0.5c-0.4,0.2-0.7,0.3-1.1,0.5c-0.4,0.2-0.8,0.4-1.2,0.6
		c-0.4,0.2-0.7,0.4-1.1,0.6C26,6,25.6,6.2,25.2,6.4c-0.4,0.2-0.7,0.4-1,0.6c-0.4,0.2-0.8,0.5-1.1,0.7c-0.3,0.2-0.7,0.4-1,0.7
		c-0.4,0.2-0.8,0.5-1.1,0.8c-0.3,0.2-0.7,0.5-1,0.7c-0.4,0.3-0.7,0.6-1.1,0.9c-0.3,0.2-0.6,0.5-1,0.8c-0.4,0.3-0.7,0.6-1,0.9
		c-0.3,0.3-0.6,0.5-0.9,0.8c-0.3,0.3-0.7,0.6-1,1c-0.3,0.3-0.6,0.6-0.9,0.9c-0.1,0.1-0.1,0.1-0.2,0.2c3.9,2,8,3.6,12.2,4.7
		C28.4,12.9,32.3,6.6,37.6,1.5z"/>
	<path d="M14.9,85.5c0.3,0.3,0.7,0.7,1,1c0.3,0.3,0.6,0.5,0.9,0.8c0.4,0.3,0.7,0.6,1,0.9c0.3,0.3,0.6,0.5,0.9,0.8
		c0.4,0.3,0.7,0.6,1.1,0.9c0.3,0.2,0.6,0.5,1,0.7c0.4,0.3,0.8,0.5,1.1,0.8c0.3,0.2,0.7,0.4,1,0.7c0.4,0.2,0.8,0.5,1.2,0.7
		c0.3,0.2,0.7,0.4,1,0.6c0.4,0.2,0.8,0.4,1.2,0.7c0.4,0.2,0.7,0.4,1.1,0.6c0.4,0.2,0.8,0.4,1.2,0.6c0.4,0.2,0.7,0.3,1.1,0.5
		c0.4,0.2,0.9,0.4,1.3,0.5c0.4,0.2,0.7,0.3,1.1,0.4c0.4,0.2,0.9,0.3,1.3,0.5c0.4,0.1,0.7,0.3,1.1,0.4c0.5,0.1,0.9,0.3,1.3,0.4
		c0.4,0.1,0.8,0.2,1.1,0.3c0.1,0,0.3,0.1,0.4,0.1c-5.3-5.1-9.2-11.5-11.4-18.5c-4.2,1.1-8.4,2.7-12.2,4.7c0.1,0.1,0.1,0.1,0.1,0.2
		C14.3,85,14.6,85.3,14.9,85.5z"/>
	<path d="M11.5,81.8c4.3-2.3,8.8-4.1,13.6-5.4c-2.3-8-3.5-16.4-3.6-24.7H0C0.4,62.7,4.4,73.3,11.5,81.8z"/>
</g>
</svg>
