<svg xmlns:svg="http://www.w3.org/2000/svg" xmlns="http://www.w3.org/2000/svg" version="1.1" width="330" height="330" viewBox="0 0 330 330" id="Layer_1" xml:space="preserve"><defs id="defs2946"/>
<path d="m 327.7,164.7 c 0,89.7 -73,162.5 -162.8,162.5 C 75.05,327.2 2.295,254.4 2.295,164.7 2.295,75.05 75.05,2.295 164.9,2.295 c 89.8,0 162.8,72.755 162.8,162.405 z" id="path2906" style="fill:#ffffff;stroke:#000000;stroke-width:4.5905"/>
<path d="m 319.7,164.7 c 0,85.7 -69,155.5 -154.5,155.5 C 79.64,320.2 10.27,250.4 10.27,164.7 10.27,79.13 79.64,9.771 165.2,9.771 c 85.5,0 154.5,69.359 154.5,154.929 z" id="path2908" style="fill:#003399"/>
<polyline points="850.289,608.412 1178.464,935.908 1178.464,1107.763 921.769,861.33 921.449,1554.183   774.887,1554.183 775.551,864.572 518.855,1111.005 518.855,928.341 " id="polyline2910" transform="matrix(0.2295,0,0,0.2295,-29.9,-35.58)" style="fill:#ffffff"/>
<rect width="151.5" height="52.48" x="89.5" y="53.12" id="rect2912" style="fill:#c60000;stroke:#ffffff;stroke-width:4.5905"/>
</svg>