<?xml version="1.0" encoding="utf-8"?>
<!-- Generator: Adobe Illustrator 16.0.4, SVG Export Plug-In . SVG Version: 6.00 Build 0)  -->
<!DOCTYPE svg PUBLIC "-//W3C//DTD SVG 1.1//EN" "http://www.w3.org/Graphics/SVG/1.1/DTD/svg11.dtd">
<svg version="1.1" id="Ebene_1" xmlns="http://www.w3.org/2000/svg" xmlns:xlink="http://www.w3.org/1999/xlink" x="0px" y="0px"
	 width="297.638px" height="345.829px" viewBox="0 0 297.638 345.829" enable-background="new 0 0 297.638 345.829"
	 xml:space="preserve">
<g>
	<path fill="#FFFFFF" d="M254.985,215.937c-3.439-5.211-9.561-5.576-13.601-0.809L137.938,337.161
		c-4.04,4.768-2.219,8.666,4.044,8.666h79.495c6.265,0,15.283-3.32,20.041-7.379l51.713-44.113
		c4.756-4.059,5.833-11.643,2.392-16.855L254.985,215.937z"/>
	<path fill="#FFFFFF" d="M216.679,5.999C211.364,2.699,201.887,0,195.622,0h-53.64c-6.265,0-8.085,3.898-4.044,8.665
		l103.447,122.034c4.04,4.768,10.162,4.402,13.601-0.809l40.638-61.542c3.441-5.211,1.907-12.174-3.41-15.474L216.679,5.999z"/>
	<path fill="#FFFFFF" d="M67.077,0H27.793C12.507,0,0,12.449,0,27.665v290.494c0,15.216,12.507,27.667,27.793,27.667h39.283
		c15.285,0,35.858-9.516,45.716-21.146l110.728-130.625c9.858-11.627,9.858-30.658,0-42.289L112.793,21.145
		C102.936,9.515,82.362,0,67.077,0L67.077,0z"/>
</g>
</svg>
