<?xml version="1.0" standalone="no"?>
<!DOCTYPE svg PUBLIC "-//W3C//DTD SVG 20010904//EN"
 "http://www.w3.org/TR/2001/REC-SVG-20010904/DTD/svg10.dtd">
<svg version="1.0" xmlns="http://www.w3.org/2000/svg"
 width="500.000000pt" height="500.000000pt" viewBox="0 0 500.000000 500.000000"
 preserveAspectRatio="xMidYMid meet">
<metadata>
Created by potrace 1.11, written by Peter Selinger 2001-2013
</metadata>
<g transform="translate(0.000000,500.000000) scale(0.100000,-0.100000)"
fill="#000000" stroke="none">
<path d="M613 4976 c-91 -34 -150 -82 -205 -166 -65 -101 -61 66 -60 -2309 1
-1186 3 -2163 5 -2171 15 -59 23 -80 45 -120 38 -70 100 -128 181 -168 l75
-37 370 0 c204 0 389 3 411 7 130 22 317 105 430 191 52 39 146 142 360 394
160 188 299 352 310 365 36 42 349 413 365 432 8 10 20 23 25 30 6 6 78 90
159 186 81 96 158 186 170 200 168 194 361 430 378 463 61 119 70 284 21 410
-23 61 -66 118 -252 336 -92 108 -281 331 -421 496 -139 165 -261 309 -271
320 -10 11 -71 83 -136 160 -448 529 -630 742 -652 762 -85 76 -231 156 -372
205 l-94 32 -390 3 c-387 2 -391 2 -452 -21z"/>
<path d="M2333 4985 c-41 -29 -27 -75 48 -160 15 -16 120 -140 234 -275 114
-135 224 -265 245 -290 21 -25 53 -63 72 -84 18 -22 62 -74 98 -116 36 -42 84
-98 107 -126 22 -27 137 -161 253 -299 117 -137 269 -317 337 -398 69 -81 138
-154 153 -162 34 -18 80 -14 115 9 29 19 612 893 640 959 23 57 7 134 -36 173
-13 11 -96 65 -184 119 -88 54 -182 113 -210 130 -47 31 -275 171 -333 206
-15 9 -119 74 -231 144 -129 80 -233 136 -280 153 l-76 27 -465 3 c-413 2
-468 1 -487 -13z"/>
<path d="M3884 1931 c-23 -10 -85 -80 -279 -310 -66 -79 -129 -153 -140 -165
-11 -11 -40 -46 -65 -76 -25 -30 -47 -57 -50 -60 -3 -3 -30 -34 -60 -70 -30
-36 -59 -70 -65 -76 -5 -6 -28 -33 -50 -59 -75 -91 -358 -425 -380 -449 -6 -6
-33 -38 -60 -71 -28 -33 -100 -118 -161 -190 -258 -304 -264 -311 -264 -341 0
-13 9 -32 20 -42 20 -18 45 -19 663 -18 l642 2 60 24 c75 29 124 59 200 124
33 28 62 53 65 56 3 3 66 57 140 120 74 63 146 125 160 137 14 11 79 67 145
123 185 157 214 186 230 224 21 49 19 110 -5 156 -11 22 -149 234 -306 472
-157 237 -288 437 -291 443 -15 37 -105 65 -149 46z"/>
</g>
</svg>
